<?xml version="1.0" encoding="iso-8859-1"?>
<!-- Generator: Adobe Illustrator 24.1.1, SVG Export Plug-In . SVG Version: 6.00 Build 0)  -->
<svg version="1.1" id="Layer_1" xmlns="http://www.w3.org/2000/svg" xmlns:xlink="http://www.w3.org/1999/xlink" x="0px" y="0px"
	 viewBox="0 0 500 500" style="enable-background:new 0 0 500 500;" xml:space="preserve">
<g>
	<rect x="408.218" y="325.424" style="fill:#03234B;" width="65.559" height="28.126"/>
	<rect x="408.218" y="265.766" style="fill:#03234B;" width="65.559" height="28.126"/>
	<rect x="408.218" y="206.099" style="fill:#03234B;" width="65.559" height="28.126"/>
	<rect x="408.218" y="146.441" style="fill:#03234B;" width="65.559" height="28.126"/>
	<rect x="26.223" y="325.424" style="fill:#03234B;" width="65.559" height="28.126"/>
	<rect x="26.223" y="265.766" style="fill:#03234B;" width="65.559" height="28.126"/>
	<rect x="26.223" y="206.099" style="fill:#03234B;" width="65.559" height="28.126"/>
	<rect x="26.223" y="146.441" style="fill:#03234B;" width="65.559" height="28.126"/>
	<rect x="146.445" y="408.219" style="fill:#03234B;" width="28.126" height="65.563"/>
	<rect x="206.107" y="408.219" style="fill:#03234B;" width="28.127" height="65.555"/>
	<rect x="265.771" y="408.219" style="fill:#03234B;" width="28.126" height="65.564"/>
	<rect x="325.431" y="408.219" style="fill:#03234B;" width="28.126" height="65.555"/>
	<rect x="146.445" y="26.219" style="fill:#03234B;" width="28.126" height="65.563"/>
	<rect x="206.107" y="26.227" style="fill:#03234B;" width="28.127" height="65.554"/>
	<rect x="265.771" y="26.218" style="fill:#03234B;" width="28.126" height="65.564"/>
	<rect x="325.431" y="26.218" style="fill:#03234B;" width="28.126" height="65.564"/>
	<rect x="114.305" y="113.746" style="fill:#03234B;" width="271.797" height="271.795"/>
</g>
</svg>
